<mxfile host="app.diagrams.net" agent="Mozilla/5.0 (Windows NT 10.0; Win64; x64) AppleWebKit/537.36 (KHTML, like Gecko) Chrome/129.0.0.0 Safari/537.36" version="24.7.17">
  <diagram name="Page-1" id="WOqeyA8u3LA0Oy_nZKzj">
    <mxGraphModel dx="2573" dy="1920" grid="1" gridSize="10" guides="1" tooltips="1" connect="1" arrows="1" fold="1" page="1" pageScale="1" pageWidth="850" pageHeight="1100" math="0" shadow="0">
      <root>
        <mxCell id="0" />
        <mxCell id="1" parent="0" />
        <mxCell id="HpZ49PT2Uhz9XwStMNQq-18" value="" style="edgeStyle=orthogonalEdgeStyle;rounded=0;orthogonalLoop=1;jettySize=auto;html=1;" edge="1" parent="1" source="HpZ49PT2Uhz9XwStMNQq-7" target="HpZ49PT2Uhz9XwStMNQq-8">
          <mxGeometry relative="1" as="geometry">
            <Array as="points">
              <mxPoint x="105" y="223" />
            </Array>
          </mxGeometry>
        </mxCell>
        <mxCell id="HpZ49PT2Uhz9XwStMNQq-7" value="" style="verticalLabelPosition=bottom;html=1;verticalAlign=top;align=center;strokeColor=none;fillColor=#00BEF2;shape=mxgraph.azure.user;" vertex="1" parent="1">
          <mxGeometry x="81.25" y="100" width="47.5" height="50" as="geometry" />
        </mxCell>
        <mxCell id="HpZ49PT2Uhz9XwStMNQq-22" value="" style="edgeStyle=orthogonalEdgeStyle;rounded=0;orthogonalLoop=1;jettySize=auto;html=1;" edge="1" parent="1" source="HpZ49PT2Uhz9XwStMNQq-8" target="HpZ49PT2Uhz9XwStMNQq-21">
          <mxGeometry relative="1" as="geometry" />
        </mxCell>
        <mxCell id="HpZ49PT2Uhz9XwStMNQq-8" value="" style="points=[[0.13,0.02,0],[0.5,0,0],[0.87,0.02,0],[0.885,0.4,0],[0.985,0.985,0],[0.5,1,0],[0.015,0.985,0],[0.115,0.4,0]];verticalLabelPosition=bottom;sketch=0;html=1;verticalAlign=top;aspect=fixed;align=center;pointerEvents=1;shape=mxgraph.cisco19.laptop;fillColor=#005073;strokeColor=none;" vertex="1" parent="1">
          <mxGeometry x="20" y="205" width="44" height="35" as="geometry" />
        </mxCell>
        <mxCell id="HpZ49PT2Uhz9XwStMNQq-15" value="" style="edgeStyle=orthogonalEdgeStyle;rounded=0;orthogonalLoop=1;jettySize=auto;html=1;" edge="1" parent="1" source="HpZ49PT2Uhz9XwStMNQq-10" target="HpZ49PT2Uhz9XwStMNQq-8">
          <mxGeometry relative="1" as="geometry" />
        </mxCell>
        <mxCell id="HpZ49PT2Uhz9XwStMNQq-10" value="" style="sketch=0;pointerEvents=1;shadow=0;dashed=0;html=1;strokeColor=none;labelPosition=center;verticalLabelPosition=bottom;verticalAlign=top;align=center;fillColor=#505050;shape=mxgraph.mscae.intune.account_portal" vertex="1" parent="1">
          <mxGeometry x="20" y="100" width="43" height="50" as="geometry" />
        </mxCell>
        <mxCell id="HpZ49PT2Uhz9XwStMNQq-11" value="Admin/&lt;div&gt;Internal User&lt;/div&gt;" style="text;html=1;align=center;verticalAlign=middle;whiteSpace=wrap;rounded=0;" vertex="1" parent="1">
          <mxGeometry x="-59.3" y="60" width="60" height="30" as="geometry" />
        </mxCell>
        <mxCell id="HpZ49PT2Uhz9XwStMNQq-12" value="Supplier/&lt;div&gt;Broker&lt;/div&gt;" style="text;html=1;align=center;verticalAlign=middle;whiteSpace=wrap;rounded=0;" vertex="1" parent="1">
          <mxGeometry x="81.25" y="60" width="60" height="30" as="geometry" />
        </mxCell>
        <mxCell id="HpZ49PT2Uhz9XwStMNQq-17" value="" style="edgeStyle=orthogonalEdgeStyle;rounded=0;orthogonalLoop=1;jettySize=auto;html=1;" edge="1" parent="1" source="HpZ49PT2Uhz9XwStMNQq-13" target="HpZ49PT2Uhz9XwStMNQq-8">
          <mxGeometry relative="1" as="geometry">
            <mxPoint x="-21.5" y="223.20000000000005" as="targetPoint" />
            <Array as="points">
              <mxPoint x="-30" y="223" />
            </Array>
          </mxGeometry>
        </mxCell>
        <mxCell id="HpZ49PT2Uhz9XwStMNQq-13" value="" style="shadow=0;dashed=0;html=1;strokeColor=none;fillColor=#4495D1;labelPosition=center;verticalLabelPosition=bottom;verticalAlign=top;align=center;outlineConnect=0;shape=mxgraph.veeam.portal_admin;" vertex="1" parent="1">
          <mxGeometry x="-43.7" y="100" width="44.4" height="48.8" as="geometry" />
        </mxCell>
        <mxCell id="HpZ49PT2Uhz9XwStMNQq-14" value="Brand User" style="text;html=1;align=center;verticalAlign=middle;whiteSpace=wrap;rounded=0;" vertex="1" parent="1">
          <mxGeometry x="21.25" y="60" width="60" height="30" as="geometry" />
        </mxCell>
        <mxCell id="HpZ49PT2Uhz9XwStMNQq-21" value="" style="shape=mxgraph.sap.icon;labelPosition=center;verticalLabelPosition=bottom;align=center;verticalAlign=top;strokeWidth=1;strokeColor=#D5DADD;fillColor=#EDEFF0;gradientColor=#FCFCFC;gradientDirection=west;aspect=fixed;SAPIcon=SAP_Authorization_and_Trust_Management_service" vertex="1" parent="1">
          <mxGeometry x="17" y="288" width="50" height="50" as="geometry" />
        </mxCell>
        <mxCell id="HpZ49PT2Uhz9XwStMNQq-35" value="" style="endArrow=none;html=1;strokeColor=#5B738B;bendable=1;rounded=0;endFill=0;endSize=4;strokeWidth=3;startSize=4;startArrow=none;startFill=0;jumpStyle=gap;" edge="1" parent="1">
          <mxGeometry width="50" height="50" relative="1" as="geometry">
            <mxPoint x="910" y="-58" as="sourcePoint" />
            <mxPoint x="910" y="582" as="targetPoint" />
            <Array as="points" />
          </mxGeometry>
        </mxCell>
        <mxCell id="HpZ49PT2Uhz9XwStMNQq-47" value="" style="rounded=1;whiteSpace=wrap;html=1;strokeColor=#0070F2;fillColor=#EBF8FF;arcSize=32;absoluteArcSize=1;strokeWidth=1.5;" vertex="1" parent="1">
          <mxGeometry x="190" y="110" width="650" height="410" as="geometry" />
        </mxCell>
        <mxCell id="HpZ49PT2Uhz9XwStMNQq-48" value="BTP" style="image;image=img/lib/sap/SAP_Logo.svg;editableCssRules=.*;part=1;verticalLabelPosition=middle;labelBackgroundColor=none;verticalAlign=middle;imageAspect=0;labelPosition=right;align=left;fontSize=16;fontStyle=1;spacingLeft=0;fontColor=#002A86;spacing=0;" vertex="1" parent="HpZ49PT2Uhz9XwStMNQq-47">
          <mxGeometry width="37" height="19" relative="1" as="geometry">
            <mxPoint x="20" y="20" as="offset" />
          </mxGeometry>
        </mxCell>
        <mxCell id="HpZ49PT2Uhz9XwStMNQq-49" value="" style="shape=mxgraph.sap.icon;labelPosition=center;verticalLabelPosition=bottom;align=center;verticalAlign=top;strokeWidth=1;strokeColor=#D5DADD;fillColor=#EDEFF0;gradientColor=#FCFCFC;gradientDirection=west;aspect=fixed;SAPIcon=SAP_Build_Process_Automation" vertex="1" parent="1">
          <mxGeometry x="380" y="280" width="50" height="50" as="geometry" />
        </mxCell>
      </root>
    </mxGraphModel>
  </diagram>
</mxfile>
